<svg xmlns="http://www.w3.org/2000/svg" width="24" height="24" viewBox="0 0 24 24" fill="none">
  <path fill-rule="evenodd" clip-rule="evenodd" d="M7.71429 1.71429C7.71429 1.25963 7.53367 0.823594 7.21218 0.502103C6.89069 0.180612 6.45466 0 6 0C5.54534 0 5.10931 0.180612 4.78782 0.502103C4.46633 0.823594 4.28571 1.25963 4.28571 1.71429V3.42857H2.57143C1.88944 3.42857 1.23539 3.69949 0.753154 4.18173C0.270918 4.66396 0 5.31801 0 6L0 21.4286C0 22.1106 0.270918 22.7646 0.753154 23.2468C1.23539 23.7291 1.88944 24 2.57143 24H21.4286C22.1106 24 22.7646 23.7291 23.2468 23.2468C23.7291 22.7646 24 22.1106 24 21.4286V6C24 5.31801 23.7291 4.66396 23.2468 4.18173C22.7646 3.69949 22.1106 3.42857 21.4286 3.42857H19.7143V1.71429C19.7143 1.25963 19.5337 0.823594 19.2122 0.502103C18.8907 0.180612 18.4547 0 18 0C17.5453 0 17.1093 0.180612 16.7878 0.502103C16.4663 0.823594 16.2857 1.25963 16.2857 1.71429V3.42857H7.71429V1.71429ZM10.2343 9.30514C10.2343 8.93314 10.536 8.63314 10.908 8.63314H13.0937C13.464 8.63314 13.7657 8.93314 13.7657 9.30514V11.9794H16.44C16.812 11.9794 17.112 12.2811 17.112 12.6514V14.8371C17.1127 14.9257 17.0958 15.0134 17.0623 15.0954C17.0288 15.1773 16.9793 15.2518 16.9168 15.3144C16.8543 15.3771 16.7799 15.4268 16.6981 15.4605C16.6162 15.4942 16.5285 15.5113 16.44 15.5109H13.7657V18.1851C13.7662 18.2735 13.7491 18.3611 13.7155 18.4428C13.6819 18.5246 13.6324 18.5988 13.5699 18.6613C13.5074 18.7238 13.4332 18.7733 13.3514 18.8069C13.2697 18.8405 13.1821 18.8576 13.0937 18.8571H10.9063C10.8179 18.8576 10.7303 18.8405 10.6486 18.8069C10.5668 18.7733 10.4926 18.7238 10.4301 18.6613C10.3676 18.5988 10.3181 18.5246 10.2845 18.4428C10.2509 18.3611 10.2338 18.2735 10.2343 18.1851V15.5109H7.56C7.47148 15.5113 7.38375 15.4942 7.3019 15.4605C7.22005 15.4268 7.14571 15.3771 7.0832 15.3144C7.02068 15.2518 6.97124 15.1773 6.93773 15.0954C6.90422 15.0134 6.88732 14.9257 6.888 14.8371V12.6514C6.888 12.2811 7.188 11.9794 7.56 11.9794H10.2343V9.30514Z" fill="white"/>
</svg>