<svg xmlns="http://www.w3.org/2000/svg" width="20" height="22" viewBox="0 0 20 22" fill="none">
  <path d="M0.780292 20.1781C1.17607 20.5233 1.67719 20.7115 2.19435 20.7093C2.83593 20.6941 3.45359 20.4537 3.94642 20.0275L5.43414 21.5716C5.56656 21.7089 5.72399 21.8174 5.89726 21.891C6.07053 21.9645 6.25618 22.0015 6.44339 22C6.61091 22 6.77453 21.9743 6.93425 21.9229C7.1979 21.8461 7.43747 21.6989 7.62898 21.4959C7.82049 21.293 7.9572 21.0414 8.02542 20.7664C8.05847 20.4715 8.03919 20.1724 7.96691 19.884C7.95595 19.7956 7.93276 19.7093 7.89806 19.6277C7.99857 19.6349 8.09771 19.6508 8.19547 19.6756C8.49467 19.7622 8.8095 19.7737 9.11384 19.7091C9.37893 19.6169 9.61738 19.4571 9.80723 19.2442C9.99708 19.0314 10.1322 18.7724 10.2002 18.4912C10.272 18.2341 10.2761 17.9616 10.2121 17.7023C10.1481 17.4429 10.0182 17.2061 9.83602 17.0163L8.35105 15.4765L10.2429 13.5148L10.4322 13.7118C10.5183 13.8009 10.6321 13.8556 10.7533 13.8662C10.8745 13.8768 10.9955 13.8427 11.0948 13.7699C11.1942 13.6971 11.2655 13.5903 11.2963 13.4682C11.3271 13.3462 11.3154 13.2168 11.2632 13.1028C11.3732 13.1579 11.4984 13.1707 11.6167 13.139C11.735 13.1073 11.8386 13.0331 11.9091 12.9297C11.9796 12.8262 12.0124 12.7002 12.0018 12.5741C11.9912 12.4479 11.9378 12.3297 11.8511 12.2405L11.7113 12.0963C13.1172 12.6707 14.6793 12.6803 16.0916 12.1231C17.504 11.5658 18.6649 10.482 19.347 9.08373C20.0291 7.68548 20.1832 6.07356 19.7793 4.56362C19.3753 3.05368 18.4424 1.75449 17.1631 0.920459C15.9624 0.171736 14.5528 -0.13369 13.1634 0.0538625C11.7741 0.241415 10.4869 0.910912 9.51107 1.95345C8.68173 2.78522 8.11739 3.86 7.89369 5.03373C7.66999 6.20746 7.79763 7.42405 8.25949 8.52044C8.16853 8.44374 8.0551 8.40143 7.93787 8.40046C7.82063 8.39949 7.70657 8.43992 7.61444 8.51511C7.52231 8.59029 7.45759 8.69575 7.43094 8.81413C7.40429 8.93252 7.41728 9.05679 7.46779 9.1665C7.3578 9.1119 7.23272 9.09942 7.11471 9.13128C6.9967 9.16314 6.89338 9.23729 6.82304 9.34058C6.7527 9.44388 6.71989 9.56965 6.73041 9.69563C6.74094 9.82161 6.79413 9.93966 6.88055 10.0289L6.9308 10.081C3.64971 13.4676 3.07555 14.0666 2.55164 14.6141L2.44356 14.7262C2.12894 15.0546 1.76889 15.4315 0.802322 16.431C0.498166 16.7364 0.269429 17.1134 0.135457 17.5299C0.00148633 17.9464 -0.0337781 18.3903 0.0326472 18.8239C0.11939 19.3522 0.383751 19.8333 0.780292 20.1781ZM7.90357 11.089L9.26874 12.5039L3.18707 18.8096C3.02529 19.0011 2.81384 19.1403 2.5779 19.2107C2.34196 19.2811 2.09149 19.2796 1.85632 19.2065C1.73376 19.1498 1.6268 19.0623 1.54517 18.9518C1.46353 18.8414 1.4098 18.7115 1.38887 18.574C1.36246 18.3665 1.38373 18.1554 1.45097 17.958C1.51821 17.7606 1.62951 17.5825 1.77577 17.4382C2.34323 16.8514 2.90935 16.2631 3.47415 15.6735L3.50995 15.6364C4.03936 15.0846 4.58736 14.5128 7.90357 11.089ZM9.32588 9.62125L9.63568 9.30143L9.9978 8.92664L9.75753 8.45905C9.27328 7.58906 9.08188 6.57674 9.2135 5.58154C9.34512 4.58635 9.79228 3.66484 10.4845 2.96216C11.4235 1.98081 12.6989 1.42466 14.0321 1.41518V1.41375C14.8776 1.40861 15.707 1.65433 16.4223 2.12192C17.4442 2.78751 18.1791 3.83604 18.4744 5.04932C18.7696 6.26261 18.6023 7.54721 18.0072 8.63582C17.4122 9.72443 16.4353 10.5332 15.2798 10.8939C14.1243 11.2545 12.8792 11.1393 11.8036 10.5721L11.3582 10.3373L10.6869 11.0333L9.32588 9.62125ZM7.3776 16.4852L8.86256 18.0251C8.87427 18.0322 8.88253 18.0436 8.87427 18.0964C8.85428 18.1782 8.81896 18.2551 8.77031 18.3227C8.67424 18.3176 8.57894 18.3021 8.48599 18.2763C8.22387 18.1841 7.94271 18.1664 7.67175 18.225C7.40079 18.2836 7.14992 18.4165 6.94526 18.6097C6.76075 18.8158 6.63325 19.0696 6.57618 19.3445C6.51911 19.6194 6.5346 19.9052 6.62101 20.1717C6.64396 20.2707 6.66002 20.3706 6.6692 20.4715C6.59468 20.5315 6.50261 20.5633 6.40828 20.5615L4.92814 19.0259L7.3776 16.4852Z" fill="#1E1E1E"/>
</svg>