<svg xmlns="http://www.w3.org/2000/svg" width="24" height="25" viewBox="0 0 24 25" fill="none">
  <path d="M0 12.5C0 12.8536 0.140476 13.1928 0.390524 13.4428C0.640573 13.6929 0.979711 13.8333 1.33333 13.8333H9.33333C9.68696 13.8333 10.0261 13.6929 10.2761 13.4428C10.5262 13.1928 10.6667 12.8536 10.6667 12.5V1.83333C10.6667 1.47971 10.5262 1.14057 10.2761 0.890524C10.0261 0.640476 9.68696 0.5 9.33333 0.5H1.33333C0.979711 0.5 0.640573 0.640476 0.390524 0.890524C0.140476 1.14057 0 1.47971 0 1.83333V12.5ZM0 23.1667C0 23.5203 0.140476 23.8594 0.390524 24.1095C0.640573 24.3595 0.979711 24.5 1.33333 24.5H9.33333C9.68696 24.5 10.0261 24.3595 10.2761 24.1095C10.5262 23.8594 10.6667 23.5203 10.6667 23.1667V17.8333C10.6667 17.4797 10.5262 17.1406 10.2761 16.8905C10.0261 16.6405 9.68696 16.5 9.33333 16.5H1.33333C0.979711 16.5 0.640573 16.6405 0.390524 16.8905C0.140476 17.1406 0 17.4797 0 17.8333V23.1667ZM13.3333 23.1667C13.3333 23.5203 13.4738 23.8594 13.7239 24.1095C13.9739 24.3595 14.313 24.5 14.6667 24.5H22.6667C23.0203 24.5 23.3594 24.3595 23.6095 24.1095C23.8595 23.8594 24 23.5203 24 23.1667V12.5C24 12.1464 23.8595 11.8072 23.6095 11.5572C23.3594 11.3071 23.0203 11.1667 22.6667 11.1667H14.6667C14.313 11.1667 13.9739 11.3071 13.7239 11.5572C13.4738 11.8072 13.3333 12.1464 13.3333 12.5V23.1667ZM14.6667 0.5C14.313 0.5 13.9739 0.640476 13.7239 0.890524C13.4738 1.14057 13.3333 1.47971 13.3333 1.83333V7.16667C13.3333 7.52029 13.4738 7.85943 13.7239 8.10948C13.9739 8.35952 14.313 8.5 14.6667 8.5H22.6667C23.0203 8.5 23.3594 8.35952 23.6095 8.10948C23.8595 7.85943 24 7.52029 24 7.16667V1.83333C24 1.47971 23.8595 1.14057 23.6095 0.890524C23.3594 0.640476 23.0203 0.5 22.6667 0.5H14.6667Z" fill="white"/>
</svg>