<svg xmlns="http://www.w3.org/2000/svg" width="16" height="12" viewBox="0 0 16 12" fill="none">
  <path d="M14.4 0H1.6C1.17565 0 0.768687 0.158035 0.468629 0.43934C0.168571 0.720644 0 1.10218 0 1.5V10.5C0 10.8978 0.168571 11.2794 0.468629 11.5607C0.768687 11.842 1.17565 12 1.6 12H14.4C14.8243 12 15.2313 11.842 15.5314 11.5607C15.8314 11.2794 16 10.8978 16 10.5V1.5C16 1.10218 15.8314 0.720644 15.5314 0.43934C15.2313 0.158035 14.8243 0 14.4 0ZM14.4 3.177L8 6.8385L1.6 3.177V1.5H14.4V3.177Z" fill="white"/>
</svg>