<svg xmlns="http://www.w3.org/2000/svg" width="24" height="32" viewBox="0 0 24 32" fill="none">
  <path d="M12 16C13.8186 16 15.5628 15.1571 16.8487 13.6569C18.1347 12.1566 18.8571 10.1217 18.8571 8C18.8571 5.87827 18.1347 3.84344 16.8487 2.34315C15.5628 0.842855 13.8186 0 12 0C10.1814 0 8.43723 0.842855 7.15127 2.34315C5.8653 3.84344 5.14286 5.87827 5.14286 8C5.14286 10.1217 5.8653 12.1566 7.15127 13.6569C8.43723 15.1571 10.1814 16 12 16ZM6.85714 19.45C2.89286 20.8063 0 25.0812 0 30.1437C0 31.1687 0.7125 32 1.59107 32H22.4089C23.2875 32 24 31.1687 24 30.1437C24 25.0812 21.1071 20.8063 17.1429 19.45V22.625C18.6214 23.0688 19.7143 24.6375 19.7143 26.5V29C19.7143 29.55 19.3286 30 18.8571 30H18C17.5286 30 17.1429 29.55 17.1429 29C17.1429 28.45 17.5286 28 18 28V26.5C18 25.3937 17.2339 24.5 16.2857 24.5C15.3375 24.5 14.5714 25.3937 14.5714 26.5V28C15.0429 28 15.4286 28.45 15.4286 29C15.4286 29.55 15.0429 30 14.5714 30H13.7143C13.2429 30 12.8571 29.55 12.8571 29V26.5C12.8571 24.6375 13.95 23.0688 15.4286 22.625V19.0562C15.1071 19.0187 14.7804 19 14.4482 19H9.55179C9.21964 19 8.89286 19.0187 8.57143 19.0562V23.1437C9.80893 23.575 10.7143 24.9125 10.7143 26.5C10.7143 28.4312 9.36964 30 7.71429 30C6.05893 30 4.71429 28.4312 4.71429 26.5C4.71429 24.9125 5.61964 23.575 6.85714 23.1437V19.45ZM7.71429 28C8.05528 28 8.38231 27.842 8.62342 27.5607C8.86454 27.2794 9 26.8978 9 26.5C9 26.1022 8.86454 25.7206 8.62342 25.4393C8.38231 25.158 8.05528 25 7.71429 25C7.37329 25 7.04627 25.158 6.80515 25.4393C6.56403 25.7206 6.42857 26.1022 6.42857 26.5C6.42857 26.8978 6.56403 27.2794 6.80515 27.5607C7.04627 27.842 7.37329 28 7.71429 28Z" fill="white"/>
</svg>