<svg xmlns="http://www.w3.org/2000/svg" width="19" height="28" viewBox="0 0 19 28" fill="none">
  <path d="M9.33333 0.666687C4.17333 0.666687 0 4.84002 0 10C0 17 9.33333 27.3334 9.33333 27.3334C9.33333 27.3334 18.6667 17 18.6667 10C18.6667 4.84002 14.4933 0.666687 9.33333 0.666687ZM2.66667 10C2.66667 6.32002 5.65333 3.33335 9.33333 3.33335C13.0133 3.33335 16 6.32002 16 10C16 13.84 12.16 19.5867 9.33333 23.1734C6.56 19.6134 2.66667 13.8 2.66667 10Z" fill="white"/>
  <path d="M9.33333 13.3334C11.1743 13.3334 12.6667 11.841 12.6667 10C12.6667 8.15907 11.1743 6.66669 9.33333 6.66669C7.49238 6.66669 6 8.15907 6 10C6 11.841 7.49238 13.3334 9.33333 13.3334Z" fill="white"/>
</svg>