<svg xmlns="http://www.w3.org/2000/svg" width="26" height="24" viewBox="0 0 26 24" fill="none">
  <path d="M19.6667 17.5L25 12M25 12L19.6667 6.5M25 12H6.33333M14.3333 17.5V18.875C14.3333 19.969 13.9119 21.0182 13.1618 21.7918C12.4116 22.5654 11.3942 23 10.3333 23H5C3.93913 23 2.92172 22.5654 2.17157 21.7918C1.42143 21.0182 1 19.969 1 18.875V5.125C1 4.03098 1.42143 2.98177 2.17157 2.20818C2.92172 1.4346 3.93913 1 5 1H10.3333C11.3942 1 12.4116 1.4346 13.1618 2.20818C13.9119 2.98177 14.3333 4.03098 14.3333 5.125V6.5" stroke="white" stroke-width="2" stroke-linecap="round" stroke-linejoin="round"/>
</svg>