<svg xmlns="http://www.w3.org/2000/svg" width="18" height="23" viewBox="0 0 18 23" fill="none">
  <path d="M13.213 17.5301C13.213 18.6436 12.7841 19.7116 12.0206 20.499C11.2571 21.2864 10.2216 21.7287 9.14184 21.7287C8.0621 21.7287 7.02657 21.2864 6.26307 20.499C5.49958 19.7116 5.07065 18.6436 5.07065 17.5301M2.01726 17.5301C1.84383 17.53 1.67331 17.4842 1.52186 17.3971C1.37042 17.3099 1.24308 17.1843 1.15193 17.0321C1.06078 16.88 1.00883 16.7063 1.00103 16.5277C0.993228 16.349 1.02982 16.1712 1.10734 16.0112L3.03505 12.033V9.13279C3.03505 5.21965 5.63044 1.9321 9.14184 1C12.6532 1.9321 15.2486 5.21965 15.2486 9.13279V12.0341L17.1763 16.0112C17.2539 16.1712 17.2905 16.349 17.2827 16.5277C17.2749 16.7063 17.2229 16.88 17.1318 17.0321C17.0406 17.1843 16.9133 17.3099 16.7618 17.3971C16.6104 17.4842 16.4399 17.53 16.2664 17.5301H2.01726Z" stroke="#161616" stroke-linecap="round" stroke-linejoin="round"/>
</svg>