<svg xmlns="http://www.w3.org/2000/svg" width="20" height="20" viewBox="0 0 20 20" fill="none">
  <path d="M17.0725 14.2832L13.685 11.2032C13.525 11.0575 13.3145 10.9797 13.0982 10.9864C12.8818 10.9931 12.6766 11.0837 12.5258 11.239L10.5317 13.2899C10.0517 13.1982 9.08666 12.8974 8.09332 11.9065C7.09999 10.9124 6.79916 9.94487 6.70999 9.46821L8.75916 7.47321C8.9145 7.32248 9.0051 7.11723 9.01179 6.90088C9.01848 6.68453 8.94073 6.47407 8.79499 6.31404L5.71582 2.92737C5.57003 2.76684 5.36739 2.66946 5.15095 2.65592C4.93451 2.64239 4.72132 2.71376 4.55666 2.85487L2.74832 4.40571C2.60425 4.5503 2.51826 4.74275 2.50666 4.94654C2.49416 5.15487 2.25582 10.0899 6.08249 13.9182C9.42082 17.2557 13.6025 17.4999 14.7542 17.4999C14.9225 17.4999 15.0258 17.4949 15.0533 17.4932C15.2569 17.4812 15.4491 17.3949 15.5933 17.2507L17.1433 15.4415C17.285 15.2774 17.3569 15.0644 17.3437 14.848C17.3304 14.6315 17.2331 14.4289 17.0725 14.2832Z" fill="white"/>
</svg>